<svg width="200" height="201" viewBox="0 0 200 201" fill="none" xmlns="http://www.w3.org/2000/svg">
<path d="M200 153.703H0V153.803H200V153.703Z" fill="#EBEBEB"/>
<path d="M179.96 157.512H143.6V157.612H179.96V157.512Z" fill="#EBEBEB"/>
<path d="M132.489 156.426H122.533V156.526H132.489V156.426Z" fill="#EBEBEB"/>
<path d="M155.245 161.227H139.809V161.327H155.245V161.227Z" fill="#EBEBEB"/>
<path d="M30.0404 160.555H20.9844V160.655H30.0404V160.555Z" fill="#EBEBEB"/>
<path d="M44.3556 160.555H33.5996V160.655H44.3556V160.555Z" fill="#EBEBEB"/>
<path d="M90.0602 158.867H71.3242V158.967H90.0602V158.867Z" fill="#EBEBEB"/>
<path d="M94.8012 135.862H17.5652C16.9601 135.861 16.3802 135.62 15.9527 135.192C15.5252 134.764 15.2852 134.183 15.2852 133.578V25.0062C15.2904 24.4046 15.5328 23.8294 15.9597 23.4055C16.3866 22.9816 16.9635 22.7432 17.5652 22.7422H94.8012C95.4069 22.7422 95.9879 22.9828 96.4162 23.4112C96.8445 23.8395 97.0852 24.4204 97.0852 25.0262V133.578C97.0852 134.184 96.8445 134.765 96.4162 135.193C95.9879 135.622 95.4069 135.862 94.8012 135.862ZM17.5652 22.8222C16.9866 22.8232 16.4321 23.0538 16.0234 23.4633C15.6147 23.8727 15.3852 24.4276 15.3852 25.0062V133.578C15.3852 134.157 15.6147 134.712 16.0234 135.121C16.4321 135.531 16.9866 135.761 17.5652 135.762H94.8012C95.3801 135.761 95.935 135.531 96.3443 135.121C96.7537 134.712 96.9841 134.157 96.9852 133.578V25.0062C96.9841 24.4273 96.7537 23.8724 96.3443 23.463C95.935 23.0537 95.3801 22.8232 94.8012 22.8222H17.5652Z" fill="#EBEBEB"/>
<path d="M181.325 135.862H104.085C103.479 135.861 102.899 135.62 102.471 135.192C102.043 134.764 101.802 134.184 101.801 133.578V25.0062C101.807 24.4042 102.05 23.829 102.478 23.4052C102.905 22.9814 103.483 22.7432 104.085 22.7422H181.325C181.926 22.7443 182.502 22.9831 182.928 23.4069C183.354 23.8307 183.596 24.4053 183.601 25.0062V133.578C183.601 134.183 183.361 134.762 182.935 135.19C182.508 135.618 181.929 135.86 181.325 135.862ZM104.085 22.8222C103.506 22.8232 102.951 23.0537 102.542 23.463C102.132 23.8724 101.902 24.4273 101.901 25.0062V133.578C101.902 134.157 102.132 134.712 102.542 135.121C102.951 135.531 103.506 135.761 104.085 135.762H181.325C181.904 135.761 182.459 135.531 182.868 135.121C183.277 134.712 183.508 134.157 183.509 133.578V25.0062C183.508 24.4273 183.277 23.8724 182.868 23.463C182.459 23.0537 181.904 22.8232 181.325 22.8222H104.085Z" fill="#EBEBEB"/>
<path d="M170.48 151.43H177.98V109.822H170.48V151.43Z" fill="#F0F0F0"/>
<path d="M93.9271 153.703H176.539V151.427H93.9271V153.703Z" fill="#F0F0F0"/>
<path d="M170.48 109.82H92.4883V151.428H170.48V109.82Z" fill="#F5F5F5"/>
<path d="M171.26 109.82H178.924V107.836H171.26V109.82Z" fill="#F0F0F0"/>
<path d="M171.261 107.832H91.5449V109.816H171.261V107.832Z" fill="#FAFAFA"/>
<path d="M167.787 124.832H95.1992V113.984H167.787V124.832ZM95.6872 124.34H167.287V114.5H95.6872V124.34Z" fill="#E0E0E0"/>
<path d="M167.787 147.264H95.1992V127.844H167.787V147.264ZM95.6872 146.744H167.287V128.344H95.6872V146.744Z" fill="#E0E0E0"/>
<path d="M105.628 115.852H157.34C157.707 115.852 158.004 115.554 158.004 115.188V114.9C158.004 114.533 157.707 114.236 157.34 114.236H105.628C105.261 114.236 104.964 114.533 104.964 114.9V115.188C104.964 115.554 105.261 115.852 105.628 115.852Z" fill="#E0E0E0"/>
<path d="M105.628 129.711H157.34C157.707 129.711 158.004 129.414 158.004 129.047V128.759C158.004 128.392 157.707 128.095 157.34 128.095H105.628C105.261 128.095 104.964 128.392 104.964 128.759V129.047C104.964 129.414 105.261 129.711 105.628 129.711Z" fill="#E0E0E0"/>
<path d="M22.8391 153.703H25.9551L25.9551 100.743H22.8391L22.8391 153.703Z" fill="#E6E6E6"/>
<path d="M21.8594 153.703H24.0234L24.0234 100.743H21.8594L21.8594 153.703Z" fill="#F0F0F0"/>
<path d="M58.2595 100.742H21.1875V104.57H58.2595V100.742Z" fill="#F0F0F0"/>
<path d="M59.6555 153.703H62.7715L62.7715 104.575H59.6555L59.6555 153.703Z" fill="#E6E6E6"/>
<path d="M58.6758 153.703H60.8398L60.8398 104.575H58.6758L58.6758 153.703Z" fill="#F0F0F0"/>
<path d="M79.3801 153.703H82.4961V104.575H79.3801V153.703Z" fill="#E6E6E6"/>
<path d="M78.3926 153.703H80.5566V104.575H78.3926V153.703Z" fill="#F0F0F0"/>
<path d="M42.5637 153.703H45.6797L45.6797 104.575H42.5637L42.5637 153.703Z" fill="#E6E6E6"/>
<path d="M41.5801 153.703H43.7441L43.7441 104.575H41.5801L41.5801 153.703Z" fill="#F0F0F0"/>
<path d="M58.2641 104.57H82.4961V100.742H58.2641V104.57Z" fill="#E6E6E6"/>
<path d="M55.1201 71.1294H25.1641L27.8161 47.9414H52.4681L55.1201 71.1294Z" fill="#EBEBEB"/>
<path d="M41.7717 71.1328H38.5117V100.745H41.7717V71.1328Z" fill="#F5F5F5"/>
<path d="M46.8001 100.74H33.4961C33.4961 100.365 33.6453 100.005 33.9108 99.739C34.1764 99.4735 34.5365 99.3243 34.9121 99.3243H45.3721C45.5591 99.3227 45.7445 99.3581 45.9177 99.4286C46.0908 99.499 46.2484 99.6031 46.3811 99.7347C46.5139 99.8664 46.6193 100.023 46.6912 100.196C46.7631 100.368 46.8001 100.553 46.8001 100.74Z" fill="#F0F0F0"/>
<path d="M41.7717 73.6968L38.5117 72.1408V71.1328H41.7717V73.6968Z" fill="#E0E0E0"/>
<path d="M54.1562 100.659H68.2242L69.9643 81.5508H55.8963L54.1562 100.659Z" fill="#E6E6E6"/>
<path d="M53.4277 100.659H67.4957L69.2357 81.5508H55.1677L53.4277 100.659Z" fill="#F0F0F0"/>
<path d="M65.5723 98.544L66.9283 83.668H57.0923L55.7363 98.544H65.5723Z" fill="white"/>
<path d="M169.917 86.9531H141.361L135.805 106.741H164.361L169.917 86.9531Z" fill="#E6E6E6"/>
<path d="M164.36 106.742L164.248 107.834H135.684L135.8 106.742H164.36Z" fill="#E6E6E6"/>
<path d="M169.04 86.9531H140.48L134.924 106.741H163.484L169.04 86.9531Z" fill="#F0F0F0"/>
<path d="M163.16 105.451L167.756 88.3154C167.82 88.0714 167.696 87.8594 167.488 87.8594H141.232C141.127 87.8718 141.029 87.9172 140.951 87.9891C140.873 88.0609 140.821 88.1556 140.8 88.2594L136.208 105.383C136.14 105.627 136.264 105.839 136.472 105.839H162.728C162.832 105.829 162.93 105.786 163.008 105.716C163.085 105.646 163.139 105.554 163.16 105.451Z" fill="white"/>
<path d="M156.041 106.742L155.925 107.834H124.477L124.593 106.742H156.041Z" fill="#F0F0F0"/>
<path d="M175.833 35.3164H106.545V78.0804H175.833V35.3164Z" fill="#F0F0F0"/>
<path d="M173.864 37.2852H108.512V76.1172H173.864V37.2852Z" fill="white"/>
<path d="M175.831 78.0859H176.539V35.3219H175.831V78.0859Z" fill="#E6E6E6"/>
<path d="M99.9994 171.763C142.832 171.763 177.555 169.736 177.555 167.235C177.555 164.734 142.832 162.707 99.9994 162.707C57.1664 162.707 22.4434 164.734 22.4434 167.235C22.4434 169.736 57.1664 171.763 99.9994 171.763Z" fill="#F5F5F5"/>
<path d="M84.1699 28.7423C86.0365 27.081 88.4539 25.993 91.4219 25.4783C94.3899 24.9636 97.5272 25.2903 100.834 26.4583C104.13 27.6263 107.145 29.7356 109.878 32.7863C112.419 35.6236 114.137 38.5956 115.03 41.7023C115.921 44.5751 116.003 47.6381 115.266 50.5543C114.566 53.2574 113.076 55.6904 110.986 57.5423C109.499 58.9366 107.684 59.934 105.71 60.4423C103.947 60.8814 102.127 61.0486 100.314 60.9383C98.5725 60.8263 95.5512 60.529 91.2499 60.0463C90.2429 59.9368 89.2308 59.8807 88.2179 59.8783C87.5242 59.8737 86.8325 59.953 86.1579 60.1143C85.6227 60.2508 85.1027 60.4411 84.6059 60.6823C84.1259 60.9183 83.3139 61.3543 82.1619 61.9983C79.7939 63.4463 77.7352 63.193 75.9859 61.2383C75.5513 60.7761 75.2126 60.2324 74.9895 59.6385C74.7663 59.0446 74.6632 58.4123 74.6859 57.7783C74.7312 56.4903 75.4085 55.2596 76.7179 54.0863C79.3848 51.5308 82.957 50.1382 86.6499 50.2143C88.7521 50.2845 90.8494 50.4607 92.9339 50.7423C95.1499 51.0103 96.7859 51.1783 97.8419 51.2343C98.8902 51.2942 99.9418 51.2067 100.966 50.9743C101.987 50.748 102.932 50.2585 103.706 49.5543C104.463 48.8969 105.07 48.0837 105.484 47.1704C105.898 46.2571 106.11 45.2652 106.106 44.2623C106.138 42.129 105.338 40.1463 103.706 38.3143C101.778 36.1623 99.8165 35.065 97.8219 35.0223C95.8272 34.9796 93.4525 35.553 90.6979 36.7423C87.8952 38.057 85.6619 37.7903 83.9979 35.9423C83.5243 35.4347 83.162 34.8338 82.934 34.178C82.706 33.5223 82.6174 32.8262 82.6739 32.1343C82.6859 31.498 82.8244 30.8704 83.0812 30.2881C83.338 29.7057 83.7081 29.1803 84.1699 28.7423ZM64.8339 71.8183C63.7886 70.6827 63.2052 69.1977 63.1979 67.6543C63.1739 66.0756 63.8552 64.6636 65.2419 63.4183C65.8125 62.8905 66.4865 62.4868 67.2211 62.2328C67.9557 61.9787 68.7351 61.8798 69.5099 61.9423C70.2946 61.9898 71.0618 62.1949 71.7655 62.5454C72.4693 62.8959 73.0952 63.3846 73.6059 63.9823C74.131 64.5508 74.5365 65.219 74.7983 65.9473C75.0602 66.6756 75.173 67.449 75.1301 68.2217C75.0872 68.9944 74.8894 69.7506 74.5486 70.4454C74.2077 71.1402 73.7307 71.7595 73.1459 72.2663C71.7779 73.4903 70.3112 74.013 68.7459 73.8343C67.2336 73.6821 65.8355 72.9616 64.8339 71.8183Z" fill="#6915B4"/>
<g opacity="0.5">
<path d="M119.938 55.5624C120.5 54.2279 121.431 53.0816 122.622 52.2584C124.022 51.2611 125.657 50.6437 127.366 50.4664C129.358 50.2521 131.371 50.5466 133.218 51.3224C134.963 51.9678 136.538 53.0004 137.826 54.3424C138.942 55.5038 139.717 56.9499 140.066 58.5224C140.388 59.9921 140.263 61.5245 139.706 62.9224C139.329 63.9478 138.699 64.8613 137.874 65.5784C137.136 66.2129 136.305 66.7309 135.41 67.1144C134.552 67.4797 133.033 68.0637 130.854 68.8664C130.345 69.0533 129.847 69.2697 129.362 69.5144C129.029 69.6779 128.717 69.8821 128.434 70.1224C128.209 70.3149 128.005 70.5308 127.826 70.7664C127.654 70.9944 127.37 71.3984 126.974 71.9664C126.174 73.2304 125.128 73.6037 123.834 73.0864C123.515 72.9694 123.222 72.7904 122.972 72.5597C122.722 72.3291 122.52 72.0513 122.378 71.7424C122.236 71.3808 122.17 70.9935 122.185 70.6051C122.2 70.2167 122.296 69.8357 122.466 69.4864C123.129 67.6226 124.505 66.0978 126.29 65.2464C127.312 64.7703 128.358 64.3458 129.422 63.9744C130.546 63.5744 131.37 63.2584 131.89 63.0344C132.406 62.8106 132.888 62.5157 133.322 62.1584C133.757 61.8036 134.092 61.3418 134.294 60.8184C134.499 60.3221 134.594 59.7873 134.573 59.2508C134.551 58.7143 134.414 58.1888 134.17 57.7104C133.635 56.6574 132.713 55.852 131.598 55.4624C130.158 54.8944 128.958 54.8397 127.998 55.2984C126.833 55.9188 125.813 56.7806 125.006 57.8264C123.977 59.1304 122.841 59.5304 121.598 59.0264C121.25 58.896 120.932 58.6947 120.666 58.4351C120.399 58.1755 120.19 57.8633 120.05 57.5184C119.903 57.2161 119.817 56.8875 119.798 56.5516C119.778 56.2158 119.826 55.8796 119.938 55.5624ZM121.03 80.8424C120.257 80.5494 119.621 79.979 119.246 79.2424C119.054 78.8551 118.95 78.43 118.942 77.9978C118.934 77.5655 119.021 77.1368 119.198 76.7424C119.342 76.3511 119.567 75.9943 119.857 75.6947C120.147 75.3951 120.496 75.1593 120.882 75.0024C121.27 74.837 121.687 74.7518 122.108 74.7518C122.53 74.7518 122.947 74.837 123.334 75.0024C123.722 75.1484 124.077 75.3709 124.377 75.6566C124.677 75.9423 124.917 76.2853 125.083 76.6655C125.248 77.0456 125.335 77.4551 125.339 77.8695C125.343 78.284 125.264 78.6951 125.106 79.0784C124.968 79.4891 124.741 79.8641 124.441 80.1767C124.14 80.4892 123.775 80.7316 123.37 80.8864C122.613 81.1677 121.777 81.152 121.03 80.8424Z" fill="#6915B4"/>
</g>
<g opacity="0.1">
<path d="M146.842 53.205C146.48 52.6357 146.287 51.9755 146.286 51.301C146.272 50.5018 146.468 49.7131 146.854 49.013C147.299 48.1976 147.945 47.5092 148.73 47.013C149.438 46.5143 150.251 46.1833 151.106 46.045C151.847 45.9249 152.606 46.0107 153.302 46.293C153.953 46.5567 154.51 47.0095 154.902 47.593C155.196 48.0085 155.38 48.4914 155.438 48.997C155.484 49.447 155.462 49.9013 155.374 50.345C155.286 50.7743 155.107 51.5103 154.838 52.553C154.777 52.7983 154.729 53.0467 154.694 53.297C154.647 53.6051 154.672 53.9198 154.766 54.217C154.81 54.345 154.89 54.561 155.01 54.865C155.083 54.9895 155.13 55.1273 155.15 55.2704C155.169 55.4134 155.16 55.5589 155.123 55.6984C155.086 55.8379 155.021 55.9686 154.933 56.0831C154.845 56.1975 154.735 56.2933 154.61 56.365C154.349 56.5478 154.027 56.6197 153.714 56.565C153.537 56.5251 153.371 56.4486 153.225 56.3404C153.08 56.2323 152.959 56.0948 152.87 55.937C152.588 55.5379 152.389 55.0863 152.286 54.609C152.203 54.1952 152.193 53.77 152.258 53.353C152.344 52.8354 152.458 52.3227 152.598 51.817C152.742 51.277 152.838 50.881 152.89 50.617C152.94 50.3535 152.955 50.0844 152.934 49.817C152.911 49.556 152.821 49.3053 152.674 49.089C152.537 48.8798 152.357 48.7026 152.146 48.5693C151.935 48.4361 151.697 48.35 151.45 48.317C150.9 48.2421 150.343 48.3857 149.898 48.717C149.645 48.8572 149.425 49.0484 149.25 49.2784C149.075 49.5083 148.95 49.7721 148.882 50.053C148.812 50.6642 148.874 51.2833 149.062 51.869C149.29 52.609 149.142 53.149 148.626 53.497C148.484 53.5957 148.324 53.6641 148.154 53.6978C147.985 53.7316 147.81 53.7299 147.642 53.693C147.483 53.6694 147.33 53.6141 147.192 53.5303C147.055 53.4464 146.936 53.3358 146.842 53.205ZM156.822 59.469C156.505 59.6858 156.119 59.7784 155.738 59.729C155.537 59.7003 155.345 59.6269 155.176 59.514C155.007 59.4012 154.865 59.2518 154.762 59.077C154.65 58.9185 154.572 58.7385 154.534 58.5485C154.495 58.3584 154.497 58.1625 154.538 57.973C154.577 57.7806 154.654 57.5979 154.764 57.4357C154.875 57.2736 155.017 57.1353 155.182 57.029C155.34 56.9186 155.519 56.8414 155.708 56.8023C155.897 56.7631 156.093 56.7626 156.282 56.801C156.472 56.836 156.653 56.9099 156.813 57.0179C156.974 57.126 157.11 57.2659 157.214 57.429C157.334 57.5908 157.418 57.7771 157.459 57.9748C157.5 58.1724 157.497 58.3766 157.45 58.573C157.36 58.9397 157.136 59.2595 156.822 59.469Z" fill="#6915B4"/>
</g>
<path d="M74.317 164.595L71.293 163.811L73.097 156.895L76.121 157.679L74.317 164.595Z" fill="#FFC3BD"/>
<path d="M71.2605 163.011L74.6365 164.079C74.6646 164.086 74.691 164.098 74.7141 164.116C74.7373 164.133 74.7567 164.155 74.7713 164.18C74.7858 164.205 74.7952 164.232 74.7988 164.261C74.8025 164.29 74.8004 164.319 74.7925 164.347L74.0805 166.967C74.0306 167.104 73.9295 167.217 73.7984 167.282C73.6672 167.347 73.5161 167.359 73.3765 167.315C72.2085 166.915 71.6685 166.683 70.1765 166.211C69.2605 165.923 67.0525 165.271 65.7765 164.871C64.5005 164.471 64.9765 163.271 65.5325 163.347C68.1005 163.615 69.5925 163.399 70.6605 163.027C70.8533 162.955 71.0643 162.95 71.2605 163.011Z" fill="#263238"/>
<path opacity="0.2" d="M76.1219 157.682L73.0979 156.898L72.1699 160.462L75.1939 161.246L76.1219 157.682Z" fill="black"/>
<path d="M83.7412 86.9531C83.7412 86.9531 78.2052 113.261 76.7332 121.873C75.1332 131.305 71.6172 158.309 71.6172 158.309L76.7572 160.177C76.7572 160.177 84.8012 131.541 86.0212 122.473C88.5772 113.609 95.0532 86.9531 95.0532 86.9531H83.7412Z" fill="#6915B4"/>
<path opacity="0.3" d="M90.8497 95.5454C89.0537 99.8574 88.4017 107.709 88.7137 112.405C90.1377 106.861 91.7177 100.529 92.9417 95.5694C92.5457 94.2054 92.0017 92.7734 90.8497 95.5454Z" fill="black"/>
<path d="M76.6546 160.787L71.1426 159.195L71.3506 156.863L77.9106 158.707L76.6546 160.787Z" fill="#263238"/>
<path d="M70.022 163.173C70.2948 163.251 70.575 163.301 70.858 163.321C70.8723 163.324 70.887 163.321 70.8999 163.315C70.9129 163.308 70.9234 163.298 70.93 163.285C70.9376 163.274 70.9416 163.261 70.9416 163.247C70.9416 163.234 70.9376 163.22 70.93 163.209C70.854 163.113 70.194 162.285 69.782 162.309C69.7347 162.311 69.6885 162.325 69.6479 162.349C69.6074 162.374 69.5737 162.408 69.55 162.449C69.5093 162.507 69.4845 162.574 69.4782 162.644C69.4719 162.714 69.4842 162.785 69.514 162.849C69.638 163.016 69.8187 163.131 70.022 163.173ZM70.702 163.173C70.126 163.105 69.738 162.965 69.642 162.773C69.6234 162.732 69.6165 162.686 69.6221 162.641C69.6278 162.595 69.6457 162.553 69.674 162.517C69.6852 162.497 69.7014 162.479 69.7209 162.467C69.7405 162.454 69.7628 162.447 69.786 162.445C70.002 162.437 70.426 162.841 70.702 163.165V163.173Z" fill="#6915B4"/>
<path d="M70.8397 163.323H70.8757C70.8875 163.321 70.8987 163.316 70.9084 163.309C70.9182 163.302 70.9261 163.293 70.9317 163.283C70.9317 163.247 71.2997 162.435 71.0917 162.059C71.0632 162.011 71.025 161.969 70.9796 161.937C70.9341 161.904 70.8823 161.882 70.8277 161.871C70.7675 161.853 70.7034 161.856 70.6449 161.878C70.5864 161.901 70.5369 161.942 70.5037 161.995C70.3237 162.291 70.5677 163.035 70.8077 163.299C70.8155 163.31 70.8267 163.318 70.8397 163.323ZM70.8397 162.019C70.8672 162.027 70.8928 162.041 70.9148 162.059C70.9368 162.078 70.9548 162.101 70.9677 162.127C71.04 162.457 70.9991 162.802 70.8517 163.107C70.6637 162.811 70.5197 162.259 70.6397 162.067C70.6397 162.031 70.6997 161.991 70.8037 162.011L70.8397 162.019Z" fill="#6915B4"/>
<path d="M88.0267 64.4231C87.7587 65.0711 87.5027 65.6471 87.2267 66.2391C86.9507 66.8311 86.6547 67.4111 86.3547 67.9911C85.7467 69.1471 85.1067 70.2871 84.4027 71.3991C83.0019 73.7105 81.3078 75.8307 79.3627 77.7071L79.2907 77.7791C79.1886 77.871 79.0758 77.9503 78.9547 78.0151C78.6216 78.1947 78.2556 78.3049 77.8787 78.3391C77.663 78.3546 77.4464 78.3546 77.2307 78.3391C76.9079 78.3183 76.5871 78.2742 76.2707 78.2071C75.7027 78.0871 75.1987 77.9391 74.7027 77.7831C73.7187 77.4711 72.8027 77.0911 71.9027 76.7071C71.0027 76.3231 70.1147 75.9071 69.2427 75.4551C68.3707 75.0031 67.5147 74.5511 66.6667 74.0391C66.47 73.9191 66.3227 73.7328 66.2511 73.5138C66.1795 73.2948 66.1883 73.0574 66.276 72.8444C66.3638 72.6313 66.5246 72.4566 66.7297 72.3515C66.9347 72.2464 67.1705 72.2179 67.3947 72.2711C69.2507 72.7191 71.1027 73.2191 72.9267 73.6631C73.8347 73.8911 74.7427 74.0911 75.6147 74.2591C76.0257 74.3423 76.441 74.4024 76.8587 74.4391C77.0159 74.4482 77.1735 74.4482 77.3307 74.4391C77.3907 74.4391 77.4147 74.4391 77.3987 74.4391C77.2565 74.443 77.1181 74.4859 76.9987 74.5631L76.5987 74.8711C77.3726 74.0145 78.0901 73.1086 78.7467 72.1591C79.4187 71.1871 80.0547 70.1591 80.6667 69.1271C81.2787 68.0951 81.8667 67.0111 82.4227 65.9271C82.9787 64.8431 83.5307 63.7271 84.0227 62.6831L84.0467 62.6311C84.2827 62.1007 84.7198 61.6857 85.2618 61.4776C85.8038 61.2694 86.4062 61.2851 86.9367 61.5211C87.4671 61.7572 87.882 62.1942 88.0902 62.7362C88.2984 63.2782 88.2827 63.8807 88.0467 64.4111L88.0267 64.4231Z" fill="#FFC3BD"/>
<path d="M87.4109 60.1932C84.8349 60.2652 83.0669 63.0613 81.3789 66.5453C82.6728 68.782 84.527 70.6431 86.7589 71.9453C86.7589 71.9453 93.5269 60.0212 87.4109 60.1932Z" fill="#E0E0E0"/>
<path d="M66.5368 74.0566L64.2168 73.4646L66.0248 71.1406C66.0248 71.1406 68.0248 71.4566 68.7848 73.1406L67.9608 73.7286C67.7609 73.8823 67.5303 73.9912 67.2845 74.0478C67.0388 74.1044 66.7838 74.1074 66.5368 74.0566Z" fill="#FFC3BD"/>
<path d="M63.6536 71.0864L64.1016 70.6864C64.2849 70.5259 64.5189 70.435 64.7625 70.4299C65.0062 70.4248 65.2438 70.5057 65.4336 70.6584L66.0256 71.1344L64.2176 73.4584L63.4776 72.3064C63.3551 72.116 63.3054 71.8877 63.3378 71.6635C63.3701 71.4394 63.4823 71.2345 63.6536 71.0864Z" fill="#FFC3BD"/>
<path d="M101.385 164.232H98.2208L97.4648 157.184H100.629L101.385 164.232Z" fill="#FFC3BD"/>
<path d="M97.9454 163.879H101.501C101.56 163.876 101.618 163.896 101.662 163.935C101.706 163.974 101.733 164.029 101.737 164.087L101.909 166.791C101.906 166.937 101.846 167.075 101.742 167.177C101.638 167.278 101.499 167.335 101.353 167.335C100.117 167.311 99.5254 167.243 97.9614 167.243C97.0014 167.243 94.3614 167.339 93.0214 167.339C91.6814 167.339 91.7294 166.075 92.2934 165.963C94.8174 165.447 96.5054 164.739 97.4014 164.067C97.5571 163.946 97.7483 163.88 97.9454 163.879Z" fill="#263238"/>
<path opacity="0.2" d="M100.629 157.184H97.4648L97.8568 160.82H101.021L100.629 157.184Z" fill="black"/>
<path d="M89.9258 86.9572C89.9258 86.9572 90.6258 113.405 91.1258 122.121C91.6858 131.665 96.4258 159.941 96.4258 159.941H102.226C102.226 159.941 100.954 131.305 99.9938 121.941C100.394 111.685 100.658 86.9492 100.658 86.9492L89.9258 86.9572Z" fill="#6915B4"/>
<path d="M102.458 159.94H95.8823L95.5703 157.824L102.634 157.944L102.458 159.94Z" fill="#263238"/>
<path d="M96.8262 164.408C97.1105 164.402 97.3934 164.366 97.6702 164.3C97.6837 164.298 97.6961 164.291 97.7055 164.281C97.7148 164.271 97.7207 164.258 97.7222 164.244C97.726 164.231 97.7253 164.217 97.7203 164.204C97.7152 164.191 97.7061 164.18 97.6942 164.172C97.5942 164.108 96.6982 163.516 96.3102 163.664C96.2669 163.68 96.2284 163.707 96.1983 163.742C96.1682 163.777 96.1475 163.819 96.1382 163.864C96.1131 163.933 96.1085 164.007 96.1248 164.078C96.1411 164.149 96.1778 164.214 96.2302 164.264C96.4053 164.382 96.6167 164.433 96.8262 164.408ZM97.4662 164.2C96.8982 164.308 96.4822 164.288 96.3342 164.148C96.3037 164.115 96.2828 164.074 96.2736 164.029C96.2645 163.985 96.2674 163.939 96.2822 163.896C96.2859 163.874 96.2953 163.853 96.3093 163.836C96.3233 163.818 96.3415 163.805 96.3622 163.796C96.5702 163.716 97.0982 163.972 97.4662 164.2Z" fill="#6915B4"/>
<path d="M97.648 164.302H97.684C97.6947 164.296 97.7039 164.287 97.7108 164.277C97.7177 164.267 97.7222 164.255 97.724 164.242C97.724 164.206 97.796 163.33 97.476 163.042C97.4351 163.003 97.3856 162.974 97.3314 162.957C97.2772 162.941 97.2199 162.937 97.164 162.946C97.1022 162.947 97.0424 162.968 96.9939 163.007C96.9455 163.045 96.911 163.098 96.896 163.158C96.824 163.49 97.296 164.126 97.612 164.306L97.648 164.302ZM97.2 163.066C97.2297 163.066 97.2592 163.071 97.2867 163.082C97.3142 163.093 97.3392 163.109 97.36 163.13C97.5352 163.421 97.6084 163.762 97.568 164.098C97.292 163.874 96.976 163.39 97.024 163.174C97.024 163.13 97.06 163.082 97.168 163.07L97.2 163.066Z" fill="#6915B4"/>
<path d="M85.0739 62.2267C85.2445 61.7088 85.5515 61.2465 85.9626 60.8882C86.3736 60.53 86.8736 60.289 87.4099 60.1907C88.1915 60.0084 88.9837 59.8748 89.7819 59.7907C92.1801 59.6583 94.5837 59.6583 96.9819 59.7907C98.2379 59.8467 99.5179 59.9947 100.538 60.1387H100.574C100.836 60.1692 101.089 60.2527 101.318 60.3841C101.547 60.5156 101.746 60.6922 101.904 60.9033C102.063 61.1143 102.176 61.3554 102.239 61.6118C102.301 61.8682 102.31 62.1346 102.266 62.3947C101.467 66.4708 100.945 70.5962 100.702 74.7427C100.454 80.7667 100.79 85.4947 100.67 86.9467H83.7419C82.7139 72.2547 84.0419 65.5747 85.0739 62.2267Z" fill="#E0E0E0"/>
<path d="M98.1299 50.829C98.4252 51.0422 98.6601 51.3285 98.8116 51.6597C98.9631 51.991 99.026 52.3559 98.9941 52.7187C98.9623 53.0816 98.8368 53.4299 98.6299 53.7297C98.423 54.0295 98.1419 54.2705 97.8139 54.429C98.4979 55.561 96.6779 57.561 94.8459 56.305C93.0139 55.049 95.6019 49.761 98.1299 50.829Z" fill="#263238"/>
<path d="M90.5535 49.6116C90.3022 49.619 90.0532 49.561 89.831 49.4433C89.6088 49.3257 89.421 49.1523 89.2859 48.9402C89.1508 48.7281 89.0731 48.4846 89.0604 48.2334C89.0477 47.9823 89.1005 47.7322 89.2135 47.5076C88.3615 47.1756 88.5135 45.3156 90.0495 45.2356C91.5855 45.1556 92.3775 49.1436 90.5535 49.6116Z" fill="#263238"/>
<path d="M90.0539 61.3648C89.9394 61.2597 89.8542 61.1267 89.8066 60.9787C89.7591 60.8307 89.7508 60.673 89.7827 60.5209C89.8146 60.3688 89.8855 60.2276 89.9884 60.1111C90.0914 59.9947 90.2228 59.907 90.3699 59.8568C91.9139 59.2888 92.1939 58.1688 92.0699 56.9488C92.0344 56.6057 91.9783 56.2651 91.9019 55.9288L94.5219 53.8368L96.4499 52.3008C95.9699 54.3008 95.4339 57.7848 96.4499 59.5488C96.5637 59.7334 96.6078 59.9526 96.574 60.1668C96.5403 60.3811 96.431 60.5761 96.2659 60.7168C95.6019 61.3048 94.2419 62.0648 92.0019 61.9448C90.9739 61.8928 90.4019 61.6568 90.0539 61.3648Z" fill="#FFC3BD"/>
<path d="M84.2053 62.2995C84.3961 61.7236 84.7324 61.2067 85.1816 60.7988C85.6308 60.391 86.1777 60.106 86.7693 59.9715C87.5285 59.851 88.2936 59.7708 89.0613 59.7315C89.1415 59.72 89.2232 59.7286 89.2992 59.7566C89.3752 59.7846 89.443 59.831 89.4966 59.8917C89.5502 59.9524 89.5878 60.0255 89.6061 60.1044C89.6244 60.1832 89.6227 60.2654 89.6013 60.3435C88.2613 65.3195 86.3493 75.2755 86.9413 87.6075C86.9441 87.6843 86.9311 87.7608 86.9032 87.8323C86.8754 87.9039 86.8332 87.969 86.7792 88.0237C86.7253 88.0784 86.6608 88.1215 86.5896 88.1503C86.5184 88.1792 86.4421 88.1932 86.3653 88.1915H83.0053C82.8596 88.194 82.7184 88.1407 82.6106 88.0426C82.5028 87.9444 82.4365 87.8089 82.4253 87.6635C81.4133 72.5955 83.2013 65.0875 84.2053 62.2995Z" fill="#263238"/>
<path d="M100.446 59.8412C99.3701 59.6871 98.2874 59.5883 97.2017 59.5452C97.0052 59.5309 96.8099 59.5864 96.6504 59.7021C96.4908 59.8177 96.3772 59.986 96.3297 60.1772C95.0857 65.6572 93.9777 77.8332 93.9297 87.6292C93.9312 87.7038 93.9475 87.7773 93.9775 87.8456C94.0075 87.914 94.0506 87.9757 94.1045 88.0273C94.1584 88.079 94.2219 88.1195 94.2914 88.1466C94.3609 88.1737 94.4351 88.1868 94.5097 88.1852H100.51C100.658 88.1885 100.802 88.1333 100.911 88.0316C101.019 87.9299 101.083 87.7897 101.09 87.6412C101.13 85.6692 100.858 81.0492 101.09 75.3132C101.311 71.2258 101.825 67.1595 102.626 63.1452C102.834 62.0212 101.634 60.0092 100.446 59.8412Z" fill="#263238"/>
<path d="M102.553 61.5818C103.837 63.5178 105.005 65.4578 106.109 67.4938C106.653 68.5138 107.189 69.5498 107.673 70.6378C107.913 71.1818 108.149 71.7378 108.369 72.3258C108.611 72.9619 108.799 73.6176 108.929 74.2858C109.028 74.7727 109.049 75.2721 108.993 75.7658C108.928 76.1653 108.825 76.5577 108.685 76.9378C108.457 77.5574 108.177 78.1568 107.849 78.7298C107.26 79.7689 106.604 80.7683 105.885 81.7218C104.501 83.5682 102.988 85.314 101.357 86.9458C101.169 87.1347 100.917 87.2477 100.651 87.2635C100.385 87.2792 100.122 87.1965 99.9123 87.031C99.7029 86.8656 99.5616 86.629 99.5153 86.3662C99.469 86.1035 99.5208 85.8328 99.661 85.6058V85.5818C100.825 83.7058 102.001 81.7938 103.065 79.8978C103.593 78.9538 104.097 77.9938 104.501 77.0658C104.905 76.1378 105.201 75.1218 104.993 75.0938C104.865 74.6682 104.71 74.2513 104.529 73.8458C104.329 73.3898 104.101 72.9178 103.861 72.4498C103.373 71.5098 102.849 70.5538 102.301 69.6138C101.205 67.7258 100.037 65.8218 98.881 63.9778V63.9538C98.5665 63.4668 98.4582 62.8749 98.5801 62.3082C98.702 61.7414 99.0441 61.2463 99.531 60.9318C100.018 60.6172 100.61 60.509 101.177 60.6309C101.743 60.7528 102.238 61.0948 102.553 61.5818Z" fill="#FFC3BD"/>
<path d="M100.065 59.7898C102.641 59.7418 104.005 61.9218 105.693 65.3898C103.781 68.9298 100.133 70.4618 100.133 70.4618C100.133 70.4618 95.0012 59.8778 100.065 59.7898Z" fill="#E0E0E0"/>
<path d="M98.7457 85.4994L97.2617 85.9714L100.01 88.0594C100.01 88.0594 102.258 86.8914 101.554 85.8314L101.098 85.6274C100.355 85.2998 99.5192 85.2543 98.7457 85.4994Z" fill="#FFC3BD"/>
<path d="M96.4302 87.8047L98.0982 89.4807C98.1521 89.5332 98.2164 89.574 98.2869 89.6005C98.3574 89.627 98.4327 89.6385 98.5079 89.6344C98.5831 89.6302 98.6566 89.6105 98.7238 89.5765C98.791 89.5424 98.8504 89.4948 98.8982 89.4367L100.006 88.0607L97.2582 85.9727L96.4022 87.1447C96.3233 87.2381 96.2824 87.3579 96.2875 87.4801C96.2927 87.6023 96.3437 87.7182 96.4302 87.8047Z" fill="#FFC3BD"/>
<path opacity="0.2" d="M91.9004 55.9436C91.9768 56.2799 92.0329 56.6205 92.0684 56.9636C93.0604 57.2156 94.4684 56.0796 94.6004 55.1156C94.6173 54.6926 94.5905 54.269 94.5204 53.8516L91.9004 55.9436Z" fill="black"/>
<path d="M98.0934 49.4605C97.4174 52.4125 97.1774 54.1725 95.3614 55.4885C94.7674 55.923 94.0688 56.1923 93.3368 56.2689C92.6048 56.3456 91.8655 56.2268 91.1944 55.9248C90.5232 55.6227 89.9441 55.1482 89.516 54.5495C89.0879 53.9508 88.8262 53.2493 88.7574 52.5165C88.5254 49.7485 89.6694 45.3845 92.9014 44.6085C96.1334 43.8325 98.7694 46.5045 98.0934 49.4605Z" fill="#FFC3BD"/>
<path d="M96.726 52.0435C95.87 52.0875 94.958 49.0675 96.846 47.6115C96.546 47.7755 95.726 47.4755 95.87 46.9115C95.314 47.1435 92.882 47.0435 93.47 46.0555C92.234 46.3755 89.538 45.8395 89.25 44.6595C88.962 43.4795 90.354 43.4395 90.57 43.5955C89.958 42.7395 89.97 41.4835 91.594 41.0275C93.218 40.5715 95.666 42.9195 95.666 42.9195C95.41 42.2995 96.31 41.7995 97.242 42.3315C98.174 42.8635 98.61 44.3755 98.61 44.3755C98.61 43.9195 100.786 44.5315 99.754 46.4435C100.822 46.8435 101.31 47.4115 101.242 48.3995C101.174 49.3875 100.498 49.4435 100.498 49.4435C100.641 49.7992 100.661 50.1926 100.554 50.5609C100.448 50.9292 100.221 51.2512 99.91 51.4755C98.802 52.3675 97.834 51.3195 96.726 52.0435Z" fill="#263238"/>
<path d="M98.4204 52.2721C98.0441 52.8226 97.4885 53.2255 96.8484 53.4121C96.0244 53.6321 95.7444 52.8961 96.0804 52.1281C96.3844 51.4361 97.1764 50.4841 97.9524 50.6041C98.7284 50.7241 98.8844 51.5841 98.4204 52.2721Z" fill="#FFC3BD"/>
<path d="M93.2004 49.3394C93.1604 49.5794 92.9924 49.7594 92.8284 49.7394C92.6644 49.7194 92.5604 49.5034 92.6004 49.2594C92.6404 49.0154 92.8084 48.8594 92.9724 48.8594C93.1364 48.8594 93.2204 49.0954 93.2004 49.3394Z" fill="#263238"/>
<path d="M90.2745 48.8081C90.2345 49.0521 90.0705 49.2321 89.9065 49.2081C89.7425 49.1841 89.6385 48.9721 89.6785 48.7281C89.7185 48.4841 89.8825 48.3281 90.0465 48.3281C90.2105 48.3281 90.3145 48.5681 90.2745 48.8081Z" fill="#263238"/>
<path d="M91.4289 49.3516C91.0027 50.0555 90.4818 50.6975 89.8809 51.2596C90.0365 51.4058 90.2215 51.5172 90.4237 51.5862C90.6258 51.6551 90.8403 51.6802 91.0529 51.6596L91.4289 49.3516Z" fill="#ED847E"/>
<path d="M91.5728 52.8532C91.8637 52.8861 92.1583 52.8606 92.4392 52.7781C92.7202 52.6957 92.9818 52.558 93.2088 52.3732C93.2221 52.3591 93.2294 52.3405 93.2294 52.3212C93.2294 52.3019 93.2221 52.2833 93.2088 52.2692C93.1943 52.2568 93.1759 52.25 93.1568 52.25C93.1378 52.25 93.1193 52.2568 93.1048 52.2692C92.8552 52.4673 92.5639 52.6062 92.2528 52.6755C91.9417 52.7448 91.619 52.7426 91.3088 52.6692C91.2994 52.6669 91.2895 52.6664 91.2799 52.668C91.2703 52.6696 91.2611 52.6731 91.2528 52.6783C91.2446 52.6836 91.2375 52.6904 91.232 52.6985C91.2265 52.7065 91.2227 52.7156 91.2208 52.7252C91.2185 52.7344 91.2181 52.744 91.2197 52.7534C91.2213 52.7628 91.2249 52.7717 91.2302 52.7797C91.2354 52.7876 91.2423 52.7943 91.2504 52.7994C91.2584 52.8045 91.2674 52.8078 91.2768 52.8092C91.3743 52.8311 91.4732 52.8458 91.5728 52.8532Z" fill="#263238"/>
<path d="M93.3229 47.6753C93.2989 47.6818 93.2769 47.6942 93.2589 47.7113C93.245 47.7244 93.2339 47.7402 93.2263 47.7578C93.2188 47.7753 93.2148 47.7942 93.2148 47.8133C93.2148 47.8325 93.2188 47.8514 93.2263 47.8689C93.2339 47.8864 93.245 47.9022 93.2589 47.9153C93.4147 48.0895 93.6103 48.2234 93.829 48.3056C94.0477 48.3878 94.283 48.4158 94.5149 48.3873C94.5342 48.3854 94.5528 48.3796 94.5696 48.3701C94.5865 48.3607 94.6012 48.3479 94.6128 48.3325C94.6245 48.3171 94.6328 48.2994 94.6373 48.2806C94.6418 48.2619 94.6424 48.2423 94.6389 48.2233C94.6356 48.2041 94.6284 48.1858 94.618 48.1694C94.6075 48.153 94.5938 48.1388 94.5779 48.1276C94.5619 48.1165 94.5439 48.1086 94.5248 48.1044C94.5058 48.1002 94.4861 48.0999 94.4669 48.1033C94.2836 48.1195 94.0989 48.0917 93.9285 48.0221C93.758 47.9525 93.6066 47.8432 93.487 47.7033C93.4648 47.6841 93.4378 47.6713 93.4089 47.6663C93.3799 47.6614 93.3502 47.6645 93.3229 47.6753Z" fill="#263238"/>
<path d="M89.445 46.953C89.467 46.9628 89.4909 46.9679 89.515 46.9679C89.5391 46.9679 89.563 46.9628 89.585 46.953C89.7558 46.8679 89.9431 46.8212 90.1339 46.8164C90.3246 46.8115 90.5141 46.8486 90.689 46.925C90.7231 46.9443 90.7634 46.9497 90.8014 46.94C90.8395 46.9304 90.8723 46.9063 90.893 46.873C90.9104 46.8383 90.9139 46.7983 90.9028 46.7611C90.8916 46.7239 90.8666 46.6924 90.833 46.673C90.617 46.5694 90.3805 46.5156 90.141 46.5156C89.9014 46.5156 89.665 46.5694 89.449 46.673C89.4315 46.6806 89.4158 46.6918 89.4029 46.7059C89.39 46.72 89.3802 46.7366 89.3742 46.7547C89.3681 46.7728 89.366 46.792 89.3678 46.811C89.3697 46.83 89.3755 46.8484 89.385 46.865C89.394 46.9005 89.4153 46.9316 89.445 46.953Z" fill="#263238"/>
</svg>
